# xmcd
#
# Track frame offsets: 
#        750
#        16896
#        34995
#        51018
#        68859
#        85641
#        102031
#        118440
#        136780
#        152881
#        167756
#        189211
#        203602
#        218137
#        239372
#
# Disc length: 3431 seconds
#
# Revision: 0
# Processed by: cddbd v1.5.1PL2 Copyright (c) Steve Scherf et al.
# Submitted via: ExactAudioCopy v0.95b2
#
DISCID=c30d5d0f
DTITLE=Rednex - The Best of The West
DYEAR=2002
DGENRE=Country
TTITLE0=Cotton-Eye Joe 2002
TTITLE1=Spirit Of The Hawk
TTITLE2=Old Pop In An Oak
TTITLE3=Wish You Were Here
TTITLE4=Are You Strong Enough
TTITLE5=The Way I Mate
TTITLE6=The Song Of Silence
TTITLE7=Love Me Or Leave Me
TTITLE8=Devil Went Down To Georgia
TTITLE9=Ride The Hurricanes Eye
TTITLE10=Hold Me For A While
TTITLE11=The Chase
TTITLE12=Cotton-Eye Joe - Original
TTITLE13=Rolling Home
TTITLE14=Wild And Free
EXTD=
EXTT0=
EXTT1=
EXTT2=
EXTT3=
EXTT4=
EXTT5=
EXTT6=
EXTT7=
EXTT8=
EXTT9=
EXTT10=
EXTT11=
EXTT12=
EXTT13=
EXTT14=
PLAYORDER=
